<svg xmlns="http://www.w3.org/2000/svg" xmlns:xlink="http://www.w3.org/1999/xlink" viewBox="0 0 498.9 498.9" enable-background="new 0 0 498.9 498.9"><path fill-rule="evenodd" clip-rule="evenodd" fill="#25B8C7" d="M498.7 249.5c0-137.8-111.6-249.5-249.3-249.5-137.6 0-249.2 111.7-249.2 249.5 0 79.1 36.8 149.6 94.1 195.3l319.1-7.3c52.3-45.8 85.3-113.1 85.3-188"/><linearGradient id="a" gradientUnits="userSpaceOnUse" x1="160.704" y1="477.177" x2="473.677" y2="164.204"><stop offset=".718" stop-color="#159BB0"/><stop offset="1" stop-color="#25B8C7"/></linearGradient><path fill-rule="evenodd" clip-rule="evenodd" fill="url(#a)" d="M119.3 304.9v127.6l8.2 11.5 285.9-6.5c52.3-45.7 85.4-113 85.4-188 0-24.3-3.5-47.9-10-70.1l-105-105.1-264.5 230.6z"/><path opacity=".66" fill-rule="evenodd" clip-rule="evenodd" fill="#0E8494" d="M119.4 304.9v127.6l8.2 11.5 285.9-6.5c52.3-45.7 85.4-113 85.4-188 0-24.3-3.5-47.9-10-70.1l-105-105.1-264.5 230.6z"/><path fill-rule="evenodd" clip-rule="evenodd" fill="#FDFCE8" d="M270.4 67.3c-1.9-4.4-2.5-21.6 15.2-26.8l28.4-2.6s27.2 3 21 17.9c-6.2 14.9-26.9 20.4-39 19s-21.8 1.1-25.6-7.5z"/><ellipse transform="matrix(.989 -.15 .15 .989 -4.901 46.646)" fill-rule="evenodd" clip-rule="evenodd" fill="#F5C71E" cx="307" cy="55.8" rx="21.7" ry="15"/><path fill-rule="evenodd" clip-rule="evenodd" fill="#121507" d="M207.1 78l-49.1 18-16.3-44.7 49-17.9z"/><path fill-rule="evenodd" clip-rule="evenodd" fill="#19361A" d="M184.91 39.624l36.674-1.408 1.822 47.467-36.674 1.408z"/><g fill-rule="evenodd" clip-rule="evenodd"><g fill="#5C0D11"><path d="M226.7 9.4h179.1v5.1h-179.1zM226.7 18.9h179.1v5.1h-179.1z"/></g><path fill="#F7CC61" d="M241.8 14.5h5.1v60.7h-5.1z"/><g fill="#F7CC61"><path d="M231.8 14.5h5.1v60.7h-5.1zM241.8 14.5h5.1v60.7h-5.1zM251.7 14.5h5.1v60.7h-5.1zM261.7 14.5h5.1v60.7h-5.1z"/></g></g><path fill-rule="evenodd" clip-rule="evenodd" fill="#fff" d="M115.2 96.1c13.3-16.4 67.9-28.8 133.4-28.8h1.3c65.5 0 120.1 12.4 133.4 28.8 1.2-3.7 2.1-6.9 2.6-9.4.4-1.9.5-3.7.5-5.1 0-20.1-61.1-36.5-136.5-36.5h-1.3c-75.4 0-136.5 16.4-136.5 36.5 0 1.4.2 3.1.5 5.1.6 2.5 1.4 5.7 2.6 9.4z"/><path fill-rule="evenodd" clip-rule="evenodd" fill="#B41D23" d="M119.7 108.3c5.2 13.4 13.9 23 13.9 23s3.9 4.9 11.3 10.1c5.2 3.2 7.4 4.1 13.6 6.5 2.4 1 4.9 1.8 7.6 2.6 20 6 49.6 9.8 82.6 9.9h1.3c33 0 62.6-3.8 82.6-9.9 2.7-.7 5.2-1.6 7.6-2.6 6.2-2.4 8.4-3.3 13.6-6.5 7.4-5.2 11.3-10.1 11.3-10.1s8.6-9.7 13.9-23c1.8-4.5 3.2-8.6 4.4-12.2v-.1c-13.3-16.5-68-28.8-133.4-28.8h-1.3c-65.5 0-120.1 12.4-133.4 28.8l4.4 12.3z"/><ellipse opacity=".17" fill-rule="evenodd" clip-rule="evenodd" fill="#51100E" cx="249.3" cy="143.4" rx="88.2" ry="16.9"/><path fill-rule="evenodd" clip-rule="evenodd" fill="#fff" d="M189.4 160.2c0 6.6 26.8 12 59.9 12 33.1 0 59.9-5.4 59.9-12v-6c0-6.6-26.8-12-59.9-12-33.1 0-59.9 5.4-59.9 12v6z"/><path opacity=".17" fill-rule="evenodd" clip-rule="evenodd" fill="#51100E" d="M249.1 149.5c-32.2 0-58.4 4.8-59.7 10.9.5 6.5 27.1 11.8 59.8 11.8h6.8c27.6-.6 49.5-5 52.7-10.5.1-.3.2-.5.2-.8 0-6.3-26.8-11.4-59.8-11.4z"/><defs><path id="b" d="M498.6 249.5c0 137.8-111.6 249.4-249.3 249.4-137.7 0-249.3-111.7-249.3-249.4 0-137.8 111.6-249.5 249.3-249.5 137.6 0 249.3 111.7 249.3 249.5"/></defs><clipPath id="c"><use xlink:href="#b" overflow="visible"/></clipPath><path clip-path="url(#c)" fill-rule="evenodd" clip-rule="evenodd" fill="#EA4E2C" d="M246 154.4c60.2 0 116.5 8.6 145.9 66.4 26.4 64.8 17 134.7 21 203.2 3.5 58.8 11.1 126.8-16.2 181.3-28.7 57.4-100.4 71.8-159.4 69.7-46.4-1.7-102.4-16.8-128.6-59.2-30.7-49.7-16.1-123.7-13.9-179.1 2.6-65.6-17.8-131.4 3.8-195.5 22.3-66.6 82.6-81.6 147.4-86.8"/><path clip-path="url(#c)" fill-rule="evenodd" clip-rule="evenodd" fill="#EC7442" d="M387.7 527.3c0 92.3-61.7 167-137.9 167s-137.9-74.8-137.9-167c0-92.3 61.7-167 137.9-167 76.1-.1 137.9 74.7 137.9 167"/><path fill-rule="evenodd" clip-rule="evenodd" fill="#EA4E2C" d="M98 253.9c-60.1-16.9-15.4-93.4 32.8-61.9l-32.8 61.9zM365 186.2c47.6-33.4 90.5 42 35.3 61l-35.3-61z"/><path fill-rule="evenodd" clip-rule="evenodd" fill="#fff" d="M100.5 232.8c-7.9-4.2-13.7-9.9-8.9-19.1 4.5-8.5 12.8-7.6 20.8-3.4l-11.9 22.5zM387.7 224.8c7.9-4.2 13.7-9.9 8.9-19.1-4.5-8.5-12.8-7.6-20.8-3.4l11.9 22.5zM256.6 235.2c10.8 62.8 113.4 46.2 98.7-17.1-13.2-56.8-102.3-41.1-98.7 17.1M134 245.4c14 54.7 101.5 40.7 98.2-14.2-4-65.7-111.6-53-98.2 14.2"/><path fill-rule="evenodd" clip-rule="evenodd" fill="#38383A" d="M172.9 236.5c0 8.8-6.6 16-14.8 16-8.2 0-14.8-7.2-14.8-16s6.6-16 14.8-16c8.2 0 14.8 7.1 14.8 16"/><path fill-rule="evenodd" clip-rule="evenodd" fill="#fff" d="M168.3 240.1c0 2.2-1.6 4.1-3.5 4.1s-3.5-1.8-3.5-4.1c0-2.2 1.6-4.1 3.5-4.1 2 0 3.5 1.8 3.5 4.1"/><path fill-rule="evenodd" clip-rule="evenodd" fill="#38383A" d="M296.5 232.5c0 8.8-6.5 16-14.5 16s-14.5-7.2-14.5-16 6.5-16 14.5-16 14.5 7.1 14.5 16"/><path fill-rule="evenodd" clip-rule="evenodd" fill="#fff" d="M292 236.1c0 2.2-1.5 4.1-3.4 4.1s-3.4-1.8-3.4-4.1c0-2.2 1.5-4.1 3.4-4.1 1.8 0 3.4 1.9 3.4 4.1"/><path fill-rule="evenodd" clip-rule="evenodd" fill="#AC3923" d="M272.1 306c0 9.9 1.9 21 .3 31.6-2.1 4.8-6.2 5.3-9.7 7.2-4.9-.9-9-4.8-11-10.3-1.3-12 .5-23.7.8-35.7l19.6 7.2zM229.7 304.9c-6.5 19 3.6 56.9 21.2 28.9-1.3-12 .5-23.7.8-35.7l-22 6.8z"/><path fill-rule="evenodd" clip-rule="evenodd" fill="#fff" d="M270.1 310.6c0 8.2 1.9 17.4.3 26.1-2.1 4-6.2 4.4-9.7 6-4.9-.8-9-4-11-8.6-1.3-10 .5-19.6.8-29.6l19.6 6.1zM227.7 309.7c-6.5 15.7 3.6 47.1 21.2 23.9-1.3-10 .5-19.6.8-29.6l-22 5.7z"/><path fill-rule="evenodd" clip-rule="evenodd" fill="#F1CFA1" d="M228.9 279.5c-12.1 1-21.9 15.4-15.7 26.7 8.3 15 26.8-1.3 38.4.2 13.3.3 24.2 14.1 34.9 2.5 11.9-12.9-5.1-25.4-18.4-31l-39.2 1.6z"/><path fill-rule="evenodd" clip-rule="evenodd" fill="#38383A" d="M227.4 278.9M227.4 278.9c-.9-20.9 39-23.5 43.7-6 4.6 17.4-41.8 21.5-43.7 6"/></svg>