<svg xmlns="http://www.w3.org/2000/svg" xmlns:xlink="http://www.w3.org/1999/xlink" viewBox="0 0 498.9 498.9" enable-background="new 0 0 498.9 498.9"><path fill-rule="evenodd" clip-rule="evenodd" fill="#2C719D" d="M498.9 249.5c0-137.8-111.7-249.5-249.5-249.5-137.7 0-249.4 111.7-249.4 249.5 0 80.1 37.8 151.4 96.5 197l325.4-16.7c47.4-45.4 77-109.4 77-180.3"/><path fill-rule="evenodd" clip-rule="evenodd" fill="#12587B" d="M111.5 375.4l-41.9 23.2 46.8 46.8 305.4-15.7c47.5-45.4 77.1-109.4 77.1-180.3 0-11.9-.8-23.5-2.5-35l-76.2-76.2-308.7 237.2z"/><path fill-rule="evenodd" clip-rule="evenodd" fill="#F6D0A2" d="M67.4 391.6c.8 15.7 16.5 8.4 23.6 3.5 6.7-4.7 13.3-2 13.9-11.2.4-6-3.5-10.9-3.8-17-10.2-.9-21.3 1.5-29.7 7.6-4.3 3.1-12.4 13.1-4 17.1"/><path stroke="#12587B" stroke-width="3" stroke-linecap="round" stroke-linejoin="round" stroke-miterlimit="10" d="M67.4 391.6c2.3-.8 4.7-1.5 6.3-3.5" fill="none"/><path fill-rule="evenodd" clip-rule="evenodd" fill="#F6D0A2" d="M448.2 389.6c-.8 15.7-16.5 8.4-23.6 3.5-6.7-4.7-8.7-.8-9.3-10-.4-6-1.1-12.1-.7-18.2 10.2-.9 21.3 1.5 29.7 7.6 4.2 3.1 12.3 13.1 3.9 17.1"/><path stroke="#12587B" stroke-width="3" stroke-linecap="round" stroke-linejoin="round" stroke-miterlimit="10" d="M448.2 389.6c-2.3-.8-4.7-1.5-6.3-3.5" fill="none"/><defs><path id="a" d="M498.9 249.5c0 137.8-111.7 249.4-249.4 249.4-137.8 0-249.5-111.7-249.5-249.4 0-137.8 111.7-249.5 249.4-249.5 137.8 0 249.5 111.7 249.5 249.5"/></defs><clipPath id="b"><use xlink:href="#a" overflow="visible"/></clipPath><path clip-path="url(#b)" fill-rule="evenodd" clip-rule="evenodd" fill="#25B8C7" d="M251.8 104.6c60.2 0 116.6 8.6 146 66.4 26.4 64.8 17 134.7 21 203.2 3.5 58.8 11.1 126.8-16.2 181.3-28.7 57.4-100.4 71.8-159.5 69.7-46.4-1.7-102.5-16.8-128.7-59.2-30.7-49.8-16.2-123.7-14-179.1 2.6-65.6-17.8-131.4 3.8-195.5 22.4-66.6 82.7-81.7 147.6-86.8"/><path opacity=".57" clip-path="url(#b)" fill-rule="evenodd" clip-rule="evenodd" fill="#C9E6E2" d="M393.5 477.4c0 92.3-61.8 167-138 167s-138-74.8-138-167c0-92.3 61.8-167 138-167 76.3 0 138 74.7 138 167"/><path fill-rule="evenodd" clip-rule="evenodd" fill="#25B8C7" d="M103.7 204c-60.1-16.9-15.4-93.4 32.9-61.9l-32.9 61.9zM370.8 136.3c47.6-33.4 90.6 42 35.3 61l-35.3-61z"/><path fill-rule="evenodd" clip-rule="evenodd" fill="#fff" d="M106.2 182.9c-7.9-4.2-13.8-9.9-8.9-19.1 4.5-8.5 12.8-7.6 20.8-3.4l-11.9 22.5zM393.6 174.9c7.9-4.2 13.8-9.9 8.9-19.1-4.5-8.5-12.8-7.6-20.8-3.4l11.9 22.5zM262.4 185.4c10.8 62.8 113.5 46.2 98.8-17.1-13.3-56.9-102.4-41.2-98.8 17.1M139.7 195.5c14 54.7 101.6 40.7 98.3-14.2-4-65.6-111.7-53-98.3 14.2"/><path fill-rule="evenodd" clip-rule="evenodd" fill="#38383A" d="M178.6 186.6c0 8.8-6.6 16-14.8 16-8.2 0-14.8-7.2-14.8-16s6.6-16 14.8-16c8.2 0 14.8 7.2 14.8 16"/><path fill-rule="evenodd" clip-rule="evenodd" fill="#fff" d="M174.1 190.2c0 2.2-1.6 4.1-3.5 4.1s-3.5-1.8-3.5-4.1 1.6-4.1 3.5-4.1c1.9.1 3.5 1.9 3.5 4.1"/><path fill-rule="evenodd" clip-rule="evenodd" fill="#38383A" d="M302.3 182.6c0 8.8-6.5 16-14.5 16s-14.5-7.2-14.5-16 6.5-16 14.5-16 14.5 7.2 14.5 16"/><path fill-rule="evenodd" clip-rule="evenodd" fill="#fff" d="M297.8 186.2c0 2.2-1.5 4.1-3.4 4.1s-3.4-1.8-3.4-4.1 1.5-4.1 3.4-4.1c1.8.1 3.4 1.9 3.4 4.1"/><path opacity=".58" fill-rule="evenodd" clip-rule="evenodd" fill="#035F75" d="M277.9 256.1c0 9.9 1.9 21 .3 31.6-2.1 4.8-6.2 5.3-9.7 7.2-4.9-.9-9-4.8-11-10.3-1.3-12 .5-23.7.8-35.7l19.6 7.2zM235.5 255c-6.5 19 3.6 56.9 21.2 28.9-1.3-12 .5-23.7.8-35.7l-22 6.8z"/><path fill-rule="evenodd" clip-rule="evenodd" fill="#fff" d="M275.9 260.8c0 8.2 1.9 17.4.3 26.1-2.1 4-6.2 4.4-9.7 6-4.9-.8-9-4-11-8.6-1.3-10 .5-19.6.8-29.6l19.6 6.1zM233.4 259.9c-6.5 15.7 3.6 47.1 21.2 23.9-1.3-10 .5-19.6.8-29.6l-22 5.7z"/><path fill-rule="evenodd" clip-rule="evenodd" fill="#F6D0A2" d="M234.7 229.7c-12.1 1-21.9 15.4-15.7 26.7 8.3 15 26.9-1.3 38.4.2 13.3.3 24.2 14.1 34.9 2.5 11.9-12.9-5.1-25.4-18.4-31l-39.2 1.6z"/><path fill-rule="evenodd" clip-rule="evenodd" fill="#38383A" d="M233.1 229M233.1 229c-.9-20.9 39-23.5 43.7-6 4.7 17.5-41.7 21.5-43.7 6"/><path opacity=".12" fill="#040204" d="M372.9 54.5c-.1-1.9-1-3.6-2.6-4.6-46.6-29.6-91.8-32.2-107.4-32.2h-25.8c-16.3 0-60.8 3-106.6 32.2-1.6 1-2.6 2.7-2.6 4.6l-3.5 103.4c-.1 4.2 4.1 7 7.9 5.3 12.4-5.6 36.9-15.7 60.7-19.5l11.2-1.7 7.6-1.1c1.3 0 8.4-1.7 12.4-5.3l15.2-13c.9-1 6-4.8 10.7-4.8h.1c4.7 0 9.8 3.9 10.7 4.8l15.2 13c4 3.6 11.1 5.3 12.4 5.3l7.6 1.1 11.2 1.7c23.9 3.8 48.3 13.9 60.7 19.5 3.8 1.7 8.1-1.1 7.9-5.3l-3-103.4z"/><path fill="#EC651B" d="M261.9 12.8c15.6-.1 60.8 2.5 107.4 32.2 1.6 1 2.6 2.7 2.6 4.6l3.5 103.4c.1 4.2-4.1 7-7.9 5.3-12.4-5.6-36.9-15.7-60.7-19.5l-11.2-1.7-7.6-1.1c-1.3 0-8.4-1.7-12.4-5.3l-15.2-13c-.9-1-6-4.8-10.7-4.8h-.1c-4.7 0-9.8 3.9-10.7 4.8l-15.2 13c-4 3.6-11.1 5.3-12.4 5.3l-7.6 1.1-11.2 1.7c-23.9 3.8-48.3 13.9-60.7 19.5-3.8 1.7-8.1-1.1-7.9-5.3l3.5-103.4c.1-1.9 1-3.6 2.6-4.6 45.8-29.1 90.3-32.2 106.6-32.2h25.3z"/><ellipse transform="matrix(.81 -.586 .586 .81 -31.753 96.586)" fill="#fff" cx="133.3" cy="97.3" rx="2.6" ry="2"/><path fill="#060101" d="M211.2 45.9s-1-1.5-4-2c0 0-4.1-.8-7.4.1-1.8.5-5.4 2.7-6.9 4.5-1.5 1.8-3.1 4-4 4.8-.9.8-6.1 7-14.8 9.8 0 0-5.8 1.6-9 2.3-3.1.7-5.3 1.6-6.2 2.3-.8.6-1.5 1.4-2 2.7-.6 1.3-.6 3-.1 4.3.5 1.2 2.3 4.2 6.4 4.7 4.1.5 8.8-.4 10.3-1 2.7-1.1 5.6-3 8.7-6 0 0 5.9-5.5 8.1-8.9 2.2-3.4 3.6-5.5 5.9-7.9s3.8-4.5 7-5.4c0 0 1.7-.4 3.2-.6 1.4-.2 2.5-.5 3-.7.4-.5 2.8-1.4 1.8-3z"/><path fill="#fff" d="M201.3 79.5c5.7-3.9 11.9-6.1 17.6-6.7.8.5 1.4 1.2 2 2 3.5 5.1.4 13.5-7.1 18.6-7.5 5.1-16.4 5.1-19.9 0-1.2-1.8-1.6-3.9-1.4-6.1 2.5-2.9 5.4-5.5 8.8-7.8z"/><path fill-rule="evenodd" clip-rule="evenodd" fill="#060101" d="M201.3 79.5c4-2.7 8.3-4.6 12.5-5.7 1.1 1.1 2 2.4 2.4 4.1 1.1 4.4-1.6 8.9-6 9.9s-8.9-1.6-9.9-6c-.1-.5-.2-.9-.2-1.4l1.2-.9z"/><path fill="#CE4919" d="M201.1 79.5c-3.4 2.3-6.3 5-8.7 7.8.5-4.3 3.5-9.1 8.5-12.5 6.3-4.3 13.7-5 17.9-2-5.7.6-11.9 2.8-17.7 6.7z"/><ellipse transform="matrix(-.81 -.586 .586 -.81 604.834 390.501)" fill="#fff" cx="365.6" cy="97.3" rx="2.6" ry="2"/><path fill="#060101" d="M287.7 45.6s1.2-1.7 5-2c0 0 4.2-.3 7.3.4 1.8.4 3 1.6 4.6 3.2 1.7 1.7 4.6 5 5.5 5.8s6.1 7 14.8 9.8c0 0 5.8 1.6 9 2.3 3.1.7 5.2 1.5 5.9 2.2.7.7 1.7 1.4 2.2 2.8.6 1.3.7 3.1.2 4.3-.5 1.2-2.3 4.2-6.4 4.7-4.1.5-8.3-.3-9.9-1-1.5-.7-6-3-9.2-6.1 0 0-5.9-5.5-8.1-8.9-2.2-3.4-2.8-4.7-5.1-7-2.3-2.4-4.6-5.3-7.7-6.2 0 0-1.7-.4-3.2-.6-1.4-.2-2.5-.5-3-.7-.5-.5-2.9-1.4-1.9-3z"/><path fill="#fff" d="M297.6 79.5c-5.7-3.9-11.9-6.1-17.6-6.7-.8.5-1.4 1.2-2 2-3.5 5.1-.4 13.5 7.1 18.6 7.5 5.1 16.4 5.1 19.9 0 1.2-1.8 1.6-3.9 1.4-6.1-2.5-2.9-5.4-5.6-8.8-7.8z"/><path fill-rule="evenodd" clip-rule="evenodd" fill="#060101" d="M297.6 79.5c-4-2.7-8.3-4.6-12.5-5.7-1.1 1.1-2 2.4-2.4 4.1-1.1 4.4 1.6 8.9 6 9.9 4.4 1.1 8.9-1.6 9.9-6 .1-.5.2-.9.2-1.4l-1.2-.9z"/><path fill="#CE4919" d="M297.8 79.5c3.4 2.3 6.3 5 8.7 7.8-.5-4.3-3.5-9.1-8.5-12.5-6.3-4.3-13.7-5-17.9-2 5.7.6 11.9 2.8 17.7 6.7z"/></svg>