<svg xmlns="http://www.w3.org/2000/svg" viewBox="0 0 566.9 141.7" enable-background="new 0 0 566.9 141.7"><path fill="#38383A" d="M44.9 19.5h-34v29.1h32.8v10.4h-32.8v48.8h-10.9v-98.6h44.9v10.3zM63.2 82.2c0 4.3 0 9.3 3 13.2 1.6 2.1 4.9 4.7 10.8 4.7s9.2-2.7 10.8-4.7c3-3.8 3-8.9 3-13.2v-35.8h10.6v36.9c0 7.5-.7 13.2-5.6 18.5-5.5 5.8-12.7 7.7-18.8 7.7-6.1 0-13.3-1.9-18.8-7.7-4.9-5.3-5.6-10.9-5.6-18.5v-36.9h10.6v35.8zM123.1 0v69.2l22.4-22.8h13.9l-26.3 26.3 31 35h-13.9l-24.5-27.9-2.7 2.7v25.3h-10.6v-107.8h10.7zM179.5 82.2c0 4.3 0 9.3 3 13.2 1.6 2.1 4.9 4.7 10.8 4.7s9.2-2.7 10.8-4.7c3-3.8 3-8.9 3-13.2v-35.8h10.6v36.9c0 7.5-.7 13.2-5.6 18.5-5.5 5.8-12.7 7.7-18.8 7.7-6.1 0-13.3-1.9-18.8-7.7-4.9-5.3-5.6-10.9-5.6-18.5v-36.9h10.6v35.8zM225 77.3c0-18.6 13.7-32.4 32.5-32.4s32.5 13.8 32.5 32.4-13.9 32.2-32.5 32.2-32.5-13.6-32.5-32.2zm10.9 0c0 15.1 10.6 22.8 21.6 22.8 11.1 0 21.6-7.8 21.6-22.8 0-15.1-10.3-22.9-21.6-22.9s-21.6 8-21.6 22.9zM308 0v69.2l22.4-22.8h13.9l-26.3 26.3 31 35h-13.9l-24.5-27.9-2.7 2.7v25.3h-10.6v-107.8h10.7zM399.2 46.4h10.6v61.3h-10.6v-8.6c-3.5 4.6-10.2 10.3-21 10.3-15.5 0-29.8-10.9-29.8-32.5 0-21.1 14.2-32.1 29.8-32.1 11.8 0 18.2 6.5 21 10.2v-8.6zm-39.9 30.6c0 13.2 7.4 23.1 20.1 23.1 13 0 20.4-10.8 20.4-22.9 0-15.8-10.9-22.8-20.4-22.8-10.5 0-20.1 7.7-20.1 22.6z"/><path fill="#EA4E2C" d="M424.9 94.4c4 0 7.4 3.4 7.4 7.4s-3.4 7.4-7.4 7.4-7.4-3.4-7.4-7.4 3.4-7.4 7.4-7.4zM484 46.4h10.6v59.9c0 6.7 0 16.1-5.9 24.1-4.6 6.2-13 11.4-24.5 11.4-10.5 0-17.7-4.1-21.9-8.3-4.1-4.1-8-10.8-8-19.8h10.5c0 5.2 2.1 9.8 4.7 12.7 4.4 4.9 10 5.9 14.8 5.9 7.5 0 12.7-2.7 16.2-8.6 3.1-5 3.4-10.5 3.4-15.7v-8.9c-3.5 4.6-10.2 10.3-21 10.3-9 0-16.2-3.5-21-8.3-4.1-4.1-8.9-11.8-8.9-24.2 0-12 4.4-19.4 8.9-23.8 5.2-5 12.7-8.3 21-8.3 9 0 16.1 3.8 21 10.2v-8.6zm-33.7 13.8c-5.2 5.3-6.2 11.8-6.2 16.8 0 5.3 1 12.6 6.9 18 3.4 3.1 7.5 5 13.1 5s10-1.8 13.4-5.2c4.1-4 6.9-10.5 6.9-17.7s-2.7-13.6-6.5-17.3c-3.4-3.4-8.4-5.5-13.9-5.5-6.3.1-10.8 2.9-13.7 5.9zM502 77.3c0-18.6 13.7-32.4 32.5-32.4s32.5 13.7 32.5 32.4-13.9 32.2-32.5 32.2-32.5-13.6-32.5-32.2zm10.9 0c0 15.1 10.6 22.8 21.6 22.8 11.1 0 21.6-7.8 21.6-22.8 0-15.1-10.3-22.9-21.6-22.9s-21.6 8-21.6 22.9z"/></svg>