<?xml version="1.0" encoding="utf-8"?>
<!-- Generator: Adobe Illustrator 18.1.0, SVG Export Plug-In . SVG Version: 6.00 Build 0)  -->
<!DOCTYPE svg PUBLIC "-//W3C//DTD SVG 1.1//EN" "http://www.w3.org/Graphics/SVG/1.1/DTD/svg11.dtd">
<svg version="1.1" id="レイヤー_1" xmlns="http://www.w3.org/2000/svg" xmlns:xlink="http://www.w3.org/1999/xlink" x="0px"
	 y="0px" viewBox="0 0 577.5 144.2" enable-background="new 0 0 577.5 144.2" xml:space="preserve">
<g>
	<path fill="#38383A" d="M45.7,19.9H11.1v29.6h33.4V60H11.1v49.6H0V9.3h45.7V19.9z"/>
	<path fill="#38383A" d="M64.4,83.6c0,4.4,0,9.5,3,13.4c1.7,2.1,5,4.8,11,4.8c6,0,9.3-2.7,11-4.8c3-3.9,3-9,3-13.4V47.2h10.8v37.6
		c0,7.7-0.8,13.4-5.7,18.8c-5.6,5.9-12.9,7.8-19.1,7.8c-6.2,0-13.5-2-19.1-7.8c-5-5.4-5.7-11.1-5.7-18.8V47.2h10.8V83.6z"/>
	<path fill="#38383A" d="M125.4,0v70.4l22.9-23.2h14.1L135.7,74l31.6,35.6h-14.1l-25-28.4l-2.7,2.7v25.7h-10.8V0H125.4z"/>
	<path fill="#38383A" d="M182.9,83.6c0,4.4,0,9.5,3,13.4c1.7,2.1,5,4.8,11,4.8c6,0,9.3-2.7,11-4.8c3-3.9,3-9,3-13.4V47.2h10.8v37.6
		c0,7.7-0.8,13.4-5.7,18.8c-5.6,5.9-12.9,7.8-19.1,7.8c-6.2,0-13.5-2-19.1-7.8c-5-5.4-5.7-11.1-5.7-18.8V47.2h10.8V83.6z"/>
	<path fill="#38383A" d="M229.2,78.7c0-19,14-32.9,33.1-32.9s33.1,14,33.1,32.9s-14.1,32.8-33.1,32.8S229.2,97.6,229.2,78.7z
		 M240.3,78.7c0,15.3,10.8,23.2,22,23.2c11.3,0,22-8,22-23.2c0-15.3-10.5-23.3-22-23.3S240.3,63.5,240.3,78.7z"/>
	<path fill="#38383A" d="M313.7,0v70.4l22.9-23.2h14.1L324,74l31.6,35.6h-14.1l-25-28.4l-2.7,2.7v25.7h-10.8V0H313.7z"/>
	<path fill="#38383A" d="M406.7,47.2h10.8v62.4h-10.8v-8.7c-3.6,4.7-10.4,10.5-21.4,10.5c-15.8,0-30.4-11.1-30.4-33.1
		c0-21.5,14.4-32.6,30.4-32.6c12,0,18.5,6.6,21.4,10.4V47.2z M366.1,78.4c0,13.4,7.5,23.5,20.5,23.5c13.2,0,20.8-11,20.8-23.3
		c0-16.1-11.1-23.2-20.8-23.2C375.9,55.3,366.1,63.2,366.1,78.4z"/>
	<path fill="#EA4E2C" d="M432.9,96.1c4.1,0,7.5,3.5,7.5,7.5c0,4.1-3.5,7.5-7.5,7.5c-4.1,0-7.5-3.5-7.5-7.5
		C425.3,99.6,428.8,96.1,432.9,96.1z"/>
	<path fill="#EA4E2C" d="M493,47.2h10.8v60.9c0,6.8,0,16.4-6,24.5c-4.7,6.3-13.2,11.6-25,11.6c-10.7,0-18-4.2-22.3-8.4
		c-4.2-4.2-8.1-11-8.1-20.2h10.7c0,5.3,2.1,9.9,4.8,12.9c4.5,5,10.2,6,15,6c7.7,0,12.9-2.7,16.5-8.7c3.2-5.1,3.5-10.7,3.5-15.9v-9
		c-3.6,4.7-10.4,10.5-21.4,10.5c-9.2,0-16.5-3.6-21.4-8.4c-4.2-4.2-9-12-9-24.7c0-12.2,4.5-19.7,9-24.2c5.3-5.1,12.9-8.4,21.4-8.4
		c9.2,0,16.4,3.9,21.4,10.4V47.2z M458.7,61.2c-5.3,5.4-6.3,12-6.3,17.1c0,5.4,1.1,12.8,7.1,18.3c3.5,3.2,7.7,5.1,13.4,5.1
		s10.2-1.8,13.7-5.3c4.2-4.1,7.1-10.7,7.1-18s-2.7-13.8-6.6-17.6c-3.5-3.5-8.6-5.6-14.1-5.6C466.2,55.3,461.7,58.2,458.7,61.2z"/>
	<path fill="#EA4E2C" d="M511.4,78.7c0-19,14-32.9,33.1-32.9s33.1,14,33.1,32.9s-14.1,32.8-33.1,32.8S511.4,97.6,511.4,78.7z
		 M522.5,78.7c0,15.3,10.8,23.2,22,23.2c11.3,0,22-8,22-23.2c0-15.3-10.5-23.3-22-23.3S522.5,63.5,522.5,78.7z"/>
</g>
</svg>
