<?xml version="1.0" encoding="utf-8"?>
<!-- Generator: Adobe Illustrator 18.1.0, SVG Export Plug-In . SVG Version: 6.00 Build 0)  -->
<!DOCTYPE svg PUBLIC "-//W3C//DTD SVG 1.1//EN" "http://www.w3.org/Graphics/SVG/1.1/DTD/svg11.dtd">
<svg version="1.1" id="レイヤー_1" xmlns="http://www.w3.org/2000/svg" xmlns:xlink="http://www.w3.org/1999/xlink" x="0px"
	 y="0px" viewBox="0 0 501.3 500.3" enable-background="new 0 0 501.3 500.3" xml:space="preserve">
<path fill-rule="evenodd" clip-rule="evenodd" fill="#2C719D" d="M501.3,250.2C501.3,112,389.3,0,251.2,0C113,0,1,112,1,250.2
	C1,330.5,38.9,402,97.7,447.8L424,431C471.6,385.4,501.3,321.3,501.3,250.2"/>
<path fill-rule="evenodd" clip-rule="evenodd" fill="#12587B" d="M112.8,376.5l-42,23.3l46.9,46.9L424,431
	c47.6-45.5,77.3-109.7,77.3-180.8c0-11.9-0.9-23.6-2.5-35.1l-76.4-76.4L112.8,376.5z"/>
<path fill-rule="evenodd" clip-rule="evenodd" fill="#F6D0A2" d="M68.6,392.7c0.8,15.8,16.5,8.5,23.6,3.5c6.8-4.7,13.3-2,13.9-11.2
	c0.4-6.1-3.5-11-3.9-17c-10.2-0.9-21.4,1.5-29.7,7.6C68.3,378.7,60.2,388.7,68.6,392.7"/>
<path fill="none" stroke="#12587B" stroke-width="3" stroke-linecap="round" stroke-linejoin="round" stroke-miterlimit="10" d="
	M68.6,392.7c2.3-0.9,4.7-1.5,6.3-3.5"/>
<path fill-rule="evenodd" clip-rule="evenodd" fill="#F6D0A2" d="M450.5,390.7c-0.8,15.8-16.5,8.5-23.6,3.5c-6.8-4.7-8.7-0.8-9.3-10
	c-0.4-6.1-1.1-12.1-0.7-18.2c10.2-0.9,21.4,1.5,29.7,7.6C450.8,376.7,458.9,386.7,450.5,390.7"/>
<path fill="none" stroke="#12587B" stroke-width="3" stroke-linecap="round" stroke-linejoin="round" stroke-miterlimit="10" d="
	M450.5,390.7c-2.3-0.9-4.7-1.5-6.3-3.5"/>
<g>
	<defs>
		<path id="SVGID_1_" d="M501.3,250.2c0,138.2-112,250.2-250.2,250.2C113,500.3,1,388.3,1,250.2C1,112,113,0,251.2,0
			C389.3,0,501.3,112,501.3,250.2"/>
	</defs>
	<clipPath id="SVGID_2_">
		<use xlink:href="#SVGID_1_"  overflow="visible"/>
	</clipPath>
	<path clip-path="url(#SVGID_2_)" fill-rule="evenodd" clip-rule="evenodd" fill="#25B8C7" d="M253.5,104.9
		c60.4,0,117,8.6,146.5,66.6c26.5,65,17.1,135.1,21.1,203.8c3.5,59,11.2,127.1-16.2,181.8c-28.8,57.5-100.7,72-160,69.9
		c-46.6-1.7-102.8-16.9-129.1-59.4c-30.8-49.9-16.2-124.1-14-179.6c2.7-65.8-17.8-131.7,3.8-196.1C128,125.1,188.4,110,253.5,104.9"
		/>
	<path opacity="0.57" clip-path="url(#SVGID_2_)" fill-rule="evenodd" clip-rule="evenodd" fill="#C9E6E2" d="M395.7,478.7
		c0,92.5-61.9,167.5-138.4,167.5s-138.4-75-138.4-167.5c0-92.5,61.9-167.5,138.4-167.5S395.7,386.2,395.7,478.7"/>
</g>
<path fill-rule="evenodd" clip-rule="evenodd" fill="#25B8C7" d="M105,204.6c-60.3-17-15.5-93.7,33-62.1L105,204.6z"/>
<path fill-rule="evenodd" clip-rule="evenodd" fill="#25B8C7" d="M372.9,136.7c47.7-33.5,90.9,42.1,35.4,61.1L372.9,136.7z"/>
<path fill-rule="evenodd" clip-rule="evenodd" fill="#FFFFFF" d="M107.5,183.4c-8-4.2-13.8-9.9-8.9-19.1c4.5-8.5,12.9-7.6,20.8-3.4
	L107.5,183.4z"/>
<path fill-rule="evenodd" clip-rule="evenodd" fill="#FFFFFF" d="M395.7,175.4c8-4.2,13.8-9.9,8.9-19.1c-4.5-8.5-12.9-7.6-20.8-3.4
	L395.7,175.4z"/>
<path fill-rule="evenodd" clip-rule="evenodd" fill="#FFFFFF" d="M264.2,185.9c10.8,63,113.8,46.3,99-17.2
	C349.9,111.7,260.6,127.5,264.2,185.9"/>
<path fill-rule="evenodd" clip-rule="evenodd" fill="#FFFFFF" d="M141.1,196.1c14,54.9,101.9,40.8,98.6-14.2
	C235.7,116,127.7,128.7,141.1,196.1"/>
<path fill-rule="evenodd" clip-rule="evenodd" fill="#38383A" d="M180.1,187.1c0,8.9-6.6,16.1-14.8,16.1c-8.2,0-14.8-7.2-14.8-16.1
	c0-8.9,6.6-16.1,14.8-16.1C173.5,171.1,180.1,178.3,180.1,187.1"/>
<path fill-rule="evenodd" clip-rule="evenodd" fill="#FFFFFF" d="M175.6,190.8c0,2.3-1.6,4.1-3.5,4.1c-1.9,0-3.5-1.8-3.5-4.1
	c0-2.3,1.6-4.1,3.5-4.1C174,186.7,175.6,188.5,175.6,190.8"/>
<path fill-rule="evenodd" clip-rule="evenodd" fill="#38383A" d="M304.1,183.1c0,8.9-6.5,16.1-14.6,16.1S275,192,275,183.1
	c0-8.9,6.5-16.1,14.6-16.1S304.1,174.3,304.1,183.1"/>
<path fill-rule="evenodd" clip-rule="evenodd" fill="#FFFFFF" d="M299.6,186.8c0,2.3-1.5,4.1-3.4,4.1c-1.9,0-3.4-1.8-3.4-4.1
	c0-2.3,1.5-4.1,3.4-4.1C298.1,182.7,299.6,184.5,299.6,186.8"/>
<path opacity="0.58" fill-rule="evenodd" clip-rule="evenodd" fill="#035F75" d="M279.7,256.8c0,9.9,1.9,21.1,0.3,31.7
	c-2.1,4.8-6.2,5.3-9.8,7.2c-4.9-0.9-9-4.8-11-10.4c-1.3-12.1,0.5-23.7,0.8-35.8L279.7,256.8z"/>
<path opacity="0.58" fill-rule="evenodd" clip-rule="evenodd" fill="#035F75" d="M237.1,255.7c-6.5,19,3.6,57,21.2,29
	c-1.3-12.1,0.5-23.7,0.8-35.8L237.1,255.7z"/>
<path fill-rule="evenodd" clip-rule="evenodd" fill="#FFFFFF" d="M277.7,261.5c0,8.2,1.9,17.5,0.3,26.2c-2.1,4-6.2,4.4-9.8,6
	c-4.9-0.8-9-4-11-8.6c-1.3-10,0.5-19.7,0.8-29.6L277.7,261.5z"/>
<path fill-rule="evenodd" clip-rule="evenodd" fill="#FFFFFF" d="M235.1,260.6c-6.5,15.7,3.6,47.2,21.2,24
	c-1.3-10,0.5-19.7,0.8-29.6L235.1,260.6z"/>
<path fill-rule="evenodd" clip-rule="evenodd" fill="#F6D0A2" d="M236.3,230.3c-12.1,1-22,15.4-15.7,26.8
	c8.3,15.1,26.9-1.3,38.5,0.2c13.3,0.3,24.3,14.1,35,2.5c11.9-12.9-5.1-25.5-18.4-31.1L236.3,230.3z"/>
<path fill-rule="evenodd" clip-rule="evenodd" fill="#38383A" d="M234.8,229.7"/>
<path fill-rule="evenodd" clip-rule="evenodd" fill="#38383A" d="M234.8,229.7c-0.9-21,39.1-23.6,43.8-6
	C283.3,241.2,236.8,245.2,234.8,229.7"/>
<path opacity="0.12" fill="#040204" d="M374.9,54.7c-0.1-1.9-1.1-3.6-2.6-4.6c-46.7-29.7-92.1-32.3-107.7-32.3l-25.8,0
	c-16.4,0-61,3-106.9,32.3c-1.6,1-2.6,2.7-2.6,4.6l-3.5,103.7c-0.1,4.2,4.2,7,8,5.3c12.4-5.6,37-15.8,60.9-19.5l11.3-1.7
	c0.2,0,7.4-1.1,7.7-1.1c1.3,0,8.4-1.7,12.5-5.3l15.3-13c0.9-1,6-4.8,10.8-4.8h0.1c4.7,0,9.8,3.9,10.8,4.8l15.3,13
	c4,3.6,11.2,5.3,12.5,5.3c0.2,0,7.4,1.1,7.7,1.1l11.3,1.7c23.9,3.8,48.5,13.9,60.9,19.5c3.8,1.7,8.1-1.1,8-5.3L374.9,54.7z"/>
<g>
	<path fill="#EC651B" d="M263.7,12.9c15.7-0.1,61,2.5,107.7,32.3c1.6,1,2.6,2.7,2.6,4.6l3.5,103.7c0.1,4.2-4.2,7-8,5.3
		c-12.4-5.6-37-15.8-60.9-19.5l-11.3-1.7c-0.2,0-7.4-1.1-7.7-1.1c-1.3,0-8.4-1.7-12.5-5.3L262,118c-0.9-1-6-4.8-10.8-4.8h-0.1
		c-4.7,0-9.8,3.9-10.8,4.8l-15.3,13c-4,3.6-11.2,5.3-12.5,5.3c-0.2,0-7.4,1.1-7.7,1.1l-11.3,1.7c-23.9,3.8-48.5,13.9-60.9,19.5
		c-3.8,1.7-8.1-1.1-8-5.3l3.5-103.7c0.1-1.9,1.1-3.6,2.6-4.6c46-29.2,90.5-32.2,106.9-32.3L263.7,12.9z"/>
	
		<ellipse transform="matrix(0.8102 -0.5862 0.5862 0.8102 -31.6488 97.4448)" fill="#FFFFFF" cx="134.6" cy="97.6" rx="2.6" ry="2"/>
	<path fill="#060101" d="M212.8,46c0,0-1-1.6-4-2c0,0-4.1-0.8-7.5,0.1c-1.8,0.5-5.4,2.7-6.9,4.5c-1.5,1.8-3.2,4-4,4.8
		s-6.1,7-14.9,9.8c0,0-5.8,1.6-9,2.3c-3.1,0.7-5.3,1.6-6.3,2.3c-0.8,0.6-1.5,1.4-2.1,2.7c-0.6,1.3-0.6,3.1-0.1,4.3
		c0.5,1.2,2.3,4.2,6.4,4.7c4.1,0.5,8.8-0.4,10.4-1c2.7-1.1,5.6-3,8.7-6c0,0,5.9-5.6,8.1-8.9s3.6-5.5,5.9-7.9c2.3-2.4,3.8-4.5,7-5.4
		c0,0,1.7-0.4,3.2-0.6s2.6-0.5,3-0.7C211.4,48.6,213.8,47.6,212.8,46z"/>
	<path fill="#FFFFFF" d="M202.9,79.7c5.8-3.9,12-6.1,17.7-6.7c0.8,0.5,1.4,1.2,2,2c3.6,5.2,0.4,13.5-7.1,18.7s-16.4,5.1-20,0
		c-1.2-1.8-1.6-3.9-1.4-6.1C196.5,84.6,199.5,82,202.9,79.7z"/>
	<path fill-rule="evenodd" clip-rule="evenodd" fill="#060101" d="M202.9,79.7c4.1-2.7,8.3-4.6,12.5-5.7c1.1,1.1,2,2.4,2.4,4.1
		c1.1,4.4-1.6,8.9-6,10c-4.4,1.1-8.9-1.6-10-6c-0.1-0.5-0.2-0.9-0.2-1.4C202,80.3,202.5,80,202.9,79.7z"/>
	<path fill="#CE4919" d="M202.7,79.7c-3.4,2.3-6.4,5-8.7,7.8c0.5-4.3,3.6-9.1,8.5-12.5c6.3-4.4,13.7-5,18-2
		C214.7,73.6,208.5,75.8,202.7,79.7z"/>
	
		<ellipse transform="matrix(-0.8102 -0.5862 0.5862 -0.8102 608.3632 392.1789)" fill="#FFFFFF" cx="367.7" cy="97.6" rx="2.6" ry="2"/>
	<path fill="#060101" d="M289.5,45.7c0,0,1.2-1.7,5-2c0,0,4.2-0.3,7.3,0.4c1.8,0.4,3,1.6,4.6,3.2c1.7,1.7,4.6,5,5.5,5.8
		s6.1,7,14.9,9.8c0,0,5.8,1.6,9,2.3c3.1,0.7,5.2,1.5,5.9,2.2c0.7,0.7,1.7,1.4,2.2,2.8c0.6,1.3,0.7,3.1,0.2,4.3
		c-0.5,1.2-2.3,4.2-6.4,4.7s-8.4-0.3-9.9-1s-6-3-9.2-6.1c0,0-5.9-5.6-8.1-8.9c-2.2-3.4-2.8-4.7-5.1-7.1s-4.6-5.3-7.8-6.2
		c0,0-1.7-0.4-3.2-0.6s-2.6-0.5-3-0.7C290.9,48.3,288.5,47.3,289.5,45.7z"/>
	<path fill="#FFFFFF" d="M299.4,79.7c-5.8-3.9-12-6.1-17.7-6.7c-0.8,0.5-1.4,1.2-2,2c-3.6,5.2-0.4,13.5,7.1,18.7
		c7.5,5.1,16.4,5.1,20,0c1.2-1.8,1.6-3.9,1.4-6.1C305.8,84.6,302.8,82,299.4,79.7z"/>
	<path fill-rule="evenodd" clip-rule="evenodd" fill="#060101" d="M299.4,79.7c-4.1-2.7-8.3-4.6-12.5-5.7c-1.1,1.1-2,2.4-2.4,4.1
		c-1.1,4.4,1.6,8.9,6,10s8.9-1.6,10-6c0.1-0.5,0.2-0.9,0.2-1.4C300.3,80.3,299.9,80,299.4,79.7z"/>
	<path fill="#CE4919" d="M299.6,79.7c3.4,2.3,6.4,5,8.7,7.8c-0.5-4.3-3.6-9.1-8.5-12.5c-6.3-4.4-13.7-5-18-2
		C287.6,73.6,293.9,75.8,299.6,79.7z"/>
</g>
</svg>
