<?xml version="1.0" encoding="utf-8"?>
<!-- Generator: Adobe Illustrator 18.1.0, SVG Export Plug-In . SVG Version: 6.00 Build 0)  -->
<!DOCTYPE svg PUBLIC "-//W3C//DTD SVG 1.1//EN" "http://www.w3.org/Graphics/SVG/1.1/DTD/svg11.dtd">
<svg version="1.1" id="レイヤー_1" xmlns="http://www.w3.org/2000/svg" xmlns:xlink="http://www.w3.org/1999/xlink" x="0px"
	 y="0px" viewBox="0 0 500.6 500.1" enable-background="new 0 0 500.6 500.1" xml:space="preserve">
<path fill-rule="evenodd" clip-rule="evenodd" fill="#25B8C7" d="M500.5,249.9c0-138.2-112-250.2-250.2-250.2
	C112.2-0.2,0.2,111.8,0.2,249.9c0,79.3,36.9,150,94.5,195.8l320.2-7.3C467.3,392.5,500.5,325.1,500.5,249.9"/>
<linearGradient id="SVGID_1_" gradientUnits="userSpaceOnUse" x1="161.3089" y1="478.3324" x2="475.2533" y2="164.3879">
	<stop  offset="0.718" style="stop-color:#159BB0"/>
	<stop  offset="1" style="stop-color:#25B8C7"/>
</linearGradient>
<path fill-rule="evenodd" clip-rule="evenodd" fill="url(#SVGID_1_)" d="M119.7,305.5v127.9l8.2,11.5l286.9-6.6
	c52.5-45.9,85.7-113.3,85.7-188.5c0-24.4-3.5-48-10-70.3L385.1,74.2L119.7,305.5z"/>
<path opacity="0.66" fill-rule="evenodd" clip-rule="evenodd" fill="#0E8494" d="M119.9,305.5v127.9l8.2,11.5l286.9-6.6
	c52.5-45.9,85.7-113.3,85.7-188.5c0-24.4-3.5-48-10-70.3L385.3,74.2L119.9,305.5z"/>
<path fill-rule="evenodd" clip-rule="evenodd" fill="#FDFCE8" d="M271.4,67.2c-1.9-4.4-2.5-21.6,15.3-26.9
	c17.8-5.3,28.5-2.6,28.5-2.6s27.3,3,21,18c-6.3,15-27,20.4-39.2,19C285,73.3,275.2,75.9,271.4,67.2z"/>
<ellipse transform="matrix(0.9887 -0.1498 0.1498 0.9887 -4.8751 46.7783)" fill-rule="evenodd" clip-rule="evenodd" fill="#F5C71E" cx="308.1" cy="55.7" rx="21.8" ry="15.1"/>
<rect x="148.8" y="40.8" transform="matrix(0.9391 -0.3437 0.3437 0.9391 -11.5414 64.0846)" fill-rule="evenodd" clip-rule="evenodd" fill="#121507" width="52.4" height="47.6"/>
<rect x="186.5" y="38.7" transform="matrix(0.9993 -3.832708e-02 3.832708e-02 0.9993 -2.2471 7.8994)" fill-rule="evenodd" clip-rule="evenodd" fill="#19361A" width="36.9" height="47.6"/>
<g>
	<g>
		<g>
			<rect x="227.5" y="9.2" fill-rule="evenodd" clip-rule="evenodd" fill="#5C0D11" width="179.7" height="5.1"/>
			<rect x="227.5" y="18.7" fill-rule="evenodd" clip-rule="evenodd" fill="#5C0D11" width="179.7" height="5.1"/>
		</g>
		<rect x="242.6" y="14.3" fill-rule="evenodd" clip-rule="evenodd" fill="#F7CC61" width="5.1" height="60.9"/>
		<g>
			<rect x="232.6" y="14.3" fill-rule="evenodd" clip-rule="evenodd" fill="#F7CC61" width="5.1" height="60.9"/>
			<rect x="242.6" y="14.3" fill-rule="evenodd" clip-rule="evenodd" fill="#F7CC61" width="5.1" height="60.9"/>
			<rect x="252.6" y="14.3" fill-rule="evenodd" clip-rule="evenodd" fill="#F7CC61" width="5.1" height="60.9"/>
			<rect x="262.6" y="14.3" fill-rule="evenodd" clip-rule="evenodd" fill="#F7CC61" width="5.1" height="60.9"/>
		</g>
	</g>
	<g>
		<path fill-rule="evenodd" clip-rule="evenodd" fill="#FFFFFF" d="M115.7,96.1c13.3-16.5,68.2-28.8,133.9-28.9v0h0.2c0,0,0,0,0,0v0
			h1.1v0c65.7,0,120.6,12.4,133.9,28.9c1.2-3.7,2.1-6.9,2.6-9.4c0.4-1.9,0.5-3.7,0.5-5.1c0-20.2-61.3-36.6-137-36.6v0h-1.1v0
			c0,0,0,0,0,0h-0.2v0c-75.7,0-137,16.4-137,36.6c0,1.4,0.2,3.1,0.5,5.1C113.6,89.2,114.4,92.4,115.7,96.1z"/>
		<g>
			<path fill-rule="evenodd" clip-rule="evenodd" fill="#B41D23" d="M120.1,108.4c5.3,13.4,13.9,23.1,13.9,23.1s3.9,4.9,11.4,10.1
				c5.3,3.2,7.4,4.1,13.7,6.5c2.4,1,4.9,1.8,7.6,2.6c20.1,6,49.7,9.9,82.9,9.9h1.3c33.1,0,62.8-3.8,82.9-9.9
				c2.7-0.7,5.2-1.6,7.6-2.6c6.3-2.4,8.4-3.3,13.7-6.5c7.4-5.3,11.4-10.1,11.4-10.1s8.7-9.7,13.9-23.1c1.8-4.5,3.3-8.6,4.4-12.3
				l0-0.1c-13.3-16.5-68.2-28.8-133.9-28.9v0h-1.1v0c0,0,0,0,0,0h-0.2v0C183.8,67.2,129,79.5,115.7,96L120.1,108.4z"/>
		</g>
		<ellipse opacity="0.17" fill-rule="evenodd" clip-rule="evenodd" fill="#51100E" cx="250.2" cy="143.5" rx="88.6" ry="17"/>
		<path fill-rule="evenodd" clip-rule="evenodd" fill="#FFFFFF" d="M190.1,160.4c0,6.7,26.9,12.1,60.1,12.1
			c33.2,0,60.1-5.4,60.1-12.1v-6c0-6.7-26.9-12.1-60.1-12.1c-33.2,0-60.1,5.4-60.1,12.1V160.4z"/>
		<path opacity="0.17" fill-rule="evenodd" clip-rule="evenodd" fill="#51100E" d="M250,149.7c-32.3,0-58.6,4.9-59.9,11
			c0.5,6.6,27.1,11.9,60,11.9c1,0,2,0,2.9,0c0,0,0.1,0,0.1,0c0.7,0,1.4,0,2.1,0c0.3,0,0.7,0,1,0c0.2,0,0.4,0,0.7,0
			c27.7-0.6,49.6-5,52.9-10.5c0.1-0.3,0.2-0.5,0.2-0.8C309.9,154.8,283.1,149.7,250,149.7z"/>
	</g>
</g>
<g>
	<defs>
		<path id="SVGID_2_" d="M500.3,249.9c0,138.2-112,250.2-250.2,250.2C112,500.1,0,388.1,0,249.9C0,111.8,112-0.2,250.2-0.2
			C388.3-0.2,500.3,111.8,500.3,249.9"/>
	</defs>
	<clipPath id="SVGID_3_">
		<use xlink:href="#SVGID_2_"  overflow="visible"/>
	</clipPath>
	<path clip-path="url(#SVGID_3_)" fill-rule="evenodd" clip-rule="evenodd" fill="#EA4E2C" d="M246.9,154.6
		c60.4,0,117,8.6,146.5,66.6c26.5,65,17.1,135.1,21.1,203.8c3.5,59,11.2,127.1-16.2,181.8c-28.8,57.5-100.7,72-160,69.9
		c-46.6-1.7-102.8-16.9-129.1-59.4c-30.8-49.9-16.2-124.1-14-179.6C97.8,372,77.3,306,98.9,241.6
		C121.4,174.9,181.8,159.8,246.9,154.6"/>
	<path clip-path="url(#SVGID_3_)" fill-rule="evenodd" clip-rule="evenodd" fill="#EC7442" d="M389,528.5
		C389,621,327.1,696,250.7,696c-76.4,0-138.4-75-138.4-167.5c0-92.5,61.9-167.5,138.4-167.5C327.1,361,389,436,389,528.5"/>
</g>
<path fill-rule="evenodd" clip-rule="evenodd" fill="#EA4E2C" d="M98.4,254.4c-60.3-17-15.5-93.7,33-62.1L98.4,254.4z"/>
<path fill-rule="evenodd" clip-rule="evenodd" fill="#EA4E2C" d="M366.3,186.5c47.7-33.5,90.9,42.1,35.4,61.1L366.3,186.5z"/>
<path fill-rule="evenodd" clip-rule="evenodd" fill="#FFFFFF" d="M100.9,233.2c-8-4.2-13.8-9.9-8.9-19.1c4.5-8.5,12.9-7.6,20.8-3.4
	L100.9,233.2z"/>
<path fill-rule="evenodd" clip-rule="evenodd" fill="#FFFFFF" d="M389.1,225.2c8-4.2,13.8-9.9,8.9-19.1c-4.5-8.5-12.9-7.6-20.8-3.4
	L389.1,225.2z"/>
<path fill-rule="evenodd" clip-rule="evenodd" fill="#FFFFFF" d="M257.5,235.7c10.8,63,113.8,46.3,99-17.2
	C343.3,161.5,253.9,177.3,257.5,235.7"/>
<path fill-rule="evenodd" clip-rule="evenodd" fill="#FFFFFF" d="M134.5,245.8c14,54.8,101.9,40.8,98.6-14.2
	C229.1,165.7,121,178.5,134.5,245.8"/>
<path fill-rule="evenodd" clip-rule="evenodd" fill="#38383A" d="M173.5,236.9c0,8.9-6.6,16.1-14.8,16.1c-8.2,0-14.8-7.2-14.8-16.1
	c0-8.9,6.6-16.1,14.8-16.1C166.9,220.8,173.5,228,173.5,236.9"/>
<path fill-rule="evenodd" clip-rule="evenodd" fill="#FFFFFF" d="M168.9,240.5c0,2.3-1.6,4.1-3.5,4.1c-1.9,0-3.5-1.8-3.5-4.1
	c0-2.3,1.6-4.1,3.5-4.1C167.4,236.4,168.9,238.3,168.9,240.5"/>
<path fill-rule="evenodd" clip-rule="evenodd" fill="#38383A" d="M297.5,232.9c0,8.9-6.5,16.1-14.6,16.1c-8.1,0-14.6-7.2-14.6-16.1
	c0-8.9,6.5-16.1,14.6-16.1C291,216.8,297.5,224,297.5,232.9"/>
<path fill-rule="evenodd" clip-rule="evenodd" fill="#FFFFFF" d="M293,236.5c0,2.3-1.5,4.1-3.4,4.1c-1.9,0-3.4-1.8-3.4-4.1
	c0-2.3,1.5-4.1,3.4-4.1C291.5,232.4,293,234.3,293,236.5"/>
<path fill-rule="evenodd" clip-rule="evenodd" fill="#AC3923" d="M273,306.6c0,9.9,1.9,21.1,0.3,31.7c-2.1,4.8-6.2,5.3-9.8,7.2
	c-4.9-0.9-9-4.8-11-10.4c-1.3-12.1,0.5-23.7,0.8-35.8L273,306.6z"/>
<path fill-rule="evenodd" clip-rule="evenodd" fill="#AC3923" d="M230.5,305.5c-6.5,19,3.6,57,21.2,29c-1.3-12.1,0.5-23.7,0.8-35.8
	L230.5,305.5z"/>
<path fill-rule="evenodd" clip-rule="evenodd" fill="#FFFFFF" d="M271,311.3c0,8.2,1.9,17.5,0.3,26.2c-2.1,4-6.2,4.4-9.8,6
	c-4.9-0.8-9-4-11-8.6c-1.3-10,0.5-19.7,0.8-29.6L271,311.3z"/>
<path fill-rule="evenodd" clip-rule="evenodd" fill="#FFFFFF" d="M228.5,310.4c-6.5,15.7,3.6,47.2,21.2,24
	c-1.3-10,0.5-19.7,0.8-29.6L228.5,310.4z"/>
<path fill-rule="evenodd" clip-rule="evenodd" fill="#F1CFA1" d="M229.7,280.1c-12.1,1-22,15.4-15.7,26.8
	c8.3,15.1,26.9-1.3,38.5,0.2c13.3,0.3,24.3,14.1,35,2.5c11.9-12.9-5.1-25.5-18.4-31.1L229.7,280.1z"/>
<path fill-rule="evenodd" clip-rule="evenodd" fill="#38383A" d="M228.2,279.4"/>
<path fill-rule="evenodd" clip-rule="evenodd" fill="#38383A" d="M228.2,279.4c-0.9-21,39.1-23.6,43.8-6
	C276.7,290.9,230.1,295,228.2,279.4"/>
</svg>
